<svg width="3874" height="1145" viewBox="0 0 3874 1145" fill="none" xmlns="http://www.w3.org/2000/svg">
<path d="M273.135 976.824L267.715 429.027L841.339 760.209L329.954 1009.63L273.135 976.824Z" fill="url(#paint0_linear_224_187)"/>
<path d="M847.941 756.99L713.122 822.746V291.757L342.819 472.365V1003.35L208 1069.11V473.121C208 426.177 242.204 371.438 284.397 350.86L771.544 113.262C813.737 92.6833 847.941 114.057 847.941 161.001V756.99Z" fill="white"/>
<path d="M3659.41 344.573V433.477H3434.48V344.573H3659.41ZM3478.04 262.781H3600.73V576.169C3600.73 580.91 3601.54 584.911 3603.17 588.171C3604.8 591.283 3607.32 593.653 3610.73 595.283C3614.14 596.765 3618.51 597.506 3623.84 597.506C3627.55 597.506 3631.85 597.061 3636.74 596.172C3641.77 595.283 3645.48 594.542 3647.85 593.95L3665.63 680.187C3660.15 681.817 3652.29 683.817 3642.07 686.188C3631.99 688.559 3619.99 690.114 3606.06 690.855C3577.91 692.337 3554.28 689.448 3535.16 682.187C3516.05 674.778 3501.68 663.147 3492.04 647.292C3482.41 631.438 3477.75 611.582 3478.04 587.726V262.781Z" fill="white"/>
<path d="M3399.92 455.716H3287.01C3286.42 448.752 3283.98 442.751 3279.68 437.713C3275.38 432.675 3269.82 428.823 3263.01 426.155C3256.34 423.34 3248.93 421.933 3240.78 421.933C3230.26 421.933 3221.22 423.859 3213.67 427.711C3206.11 431.564 3202.41 437.046 3202.55 444.159C3202.41 449.197 3204.55 453.864 3209 458.161C3213.59 462.458 3222.41 465.792 3235.45 468.163L3304.79 480.609C3339.76 486.981 3365.77 497.723 3382.81 512.837C3400 527.803 3408.66 547.88 3408.81 573.07C3408.66 597.37 3401.4 618.485 3387.03 636.414C3372.81 654.195 3353.32 667.975 3328.58 677.755C3303.98 687.386 3275.9 692.202 3244.34 692.202C3192.18 692.202 3151.36 681.533 3121.87 660.196C3092.54 638.859 3076.16 610.706 3072.75 575.737H3194.55C3196.18 586.554 3201.52 594.925 3210.56 600.852C3219.74 606.631 3231.3 609.521 3245.23 609.521C3256.49 609.521 3265.75 607.594 3273.01 603.742C3280.42 599.889 3284.2 594.407 3284.35 587.294C3284.2 580.775 3280.94 575.589 3274.57 571.736C3268.34 567.884 3258.56 564.772 3245.23 562.401L3184.77 551.733C3149.95 545.658 3123.87 534.1 3106.54 517.06C3089.2 500.02 3080.61 478.09 3080.76 451.271C3080.61 427.563 3086.83 407.486 3099.43 391.038C3112.17 374.443 3130.32 361.848 3153.88 353.254C3177.59 344.512 3205.67 340.141 3238.12 340.141C3287.46 340.141 3326.35 350.365 3354.8 370.813C3383.4 391.261 3398.44 419.562 3399.92 455.716Z" fill="white"/>
<path d="M2902.66 685.973V344.581H3025.35V685.973H2902.66ZM2964.01 309.019C2947.41 309.019 2933.19 303.537 2921.33 292.572C2909.48 281.607 2903.55 268.42 2903.55 253.01C2903.55 237.6 2909.48 224.412 2921.33 213.447C2933.19 202.482 2947.41 197 2964.01 197C2980.75 197 2994.97 202.482 3006.68 213.447C3018.53 224.412 3024.46 237.6 3024.46 253.01C3024.46 268.42 3018.53 281.607 3006.68 292.572C2994.97 303.537 2980.75 309.019 2964.01 309.019Z" fill="white"/>
<path d="M2497.43 814V344.586H2619.22V404.152H2621.89C2626.34 392.594 2632.86 382 2641.45 372.368C2650.04 362.589 2660.71 354.81 2673.46 349.031C2686.2 343.104 2701.02 340.141 2717.91 340.141C2740.43 340.141 2761.84 346.142 2782.14 358.144C2802.59 370.146 2819.19 389.038 2831.93 414.82C2844.82 440.602 2851.26 474.09 2851.26 515.282C2851.26 554.696 2845.12 587.369 2832.82 613.299C2820.67 639.229 2804.37 658.566 2783.92 671.309C2763.62 684.052 2741.32 690.423 2717.02 690.423C2701.02 690.423 2686.72 687.83 2674.12 682.644C2661.68 677.31 2651.01 670.124 2642.12 661.085C2633.38 651.898 2626.63 641.526 2621.89 629.969H2620.11V814H2497.43ZM2617.45 515.282C2617.45 531.878 2619.59 546.25 2623.89 558.401C2628.34 570.403 2634.56 579.738 2642.56 586.405C2650.71 592.925 2660.42 596.185 2671.68 596.185C2682.94 596.185 2692.5 592.999 2700.35 586.628C2708.35 580.108 2714.43 570.847 2718.58 558.845C2722.87 546.695 2725.02 532.174 2725.02 515.282C2725.02 498.39 2722.87 483.943 2718.58 471.941C2714.43 459.791 2708.35 450.53 2700.35 444.159C2692.5 437.639 2682.94 434.379 2671.68 434.379C2660.42 434.379 2650.71 437.639 2642.56 444.159C2634.56 450.53 2628.34 459.791 2623.89 471.941C2619.59 483.943 2617.45 498.39 2617.45 515.282Z" fill="white"/>
<path d="M2222.77 691.312C2200.99 691.312 2181.73 687.756 2164.98 680.644C2148.39 673.383 2135.35 662.419 2125.87 647.749C2116.38 633.08 2111.64 614.41 2111.64 591.74C2111.64 573.07 2114.83 557.141 2121.2 543.954C2127.57 530.618 2136.46 519.727 2147.87 511.281C2159.28 502.835 2172.54 496.39 2187.65 491.945C2202.92 487.499 2219.36 484.61 2237 483.277C2256.11 481.795 2271.45 480.017 2283 477.942C2294.71 475.72 2303.16 472.682 2308.34 468.83C2313.53 464.829 2316.12 459.569 2316.12 453.049V452.16C2316.12 443.27 2312.71 436.454 2305.9 431.712C2299.08 426.97 2290.34 424.6 2279.67 424.6C2267.96 424.6 2258.41 427.193 2251 432.379C2243.74 437.417 2239.37 445.196 2237.88 455.716H2124.98C2126.46 434.972 2133.05 415.857 2144.76 398.373C2156.61 380.74 2173.87 366.664 2196.54 356.143C2219.21 345.475 2247.52 340.141 2281.45 340.141C2305.9 340.141 2327.83 343.03 2347.24 348.809C2366.65 354.439 2383.17 362.367 2396.8 372.591C2410.43 382.666 2420.81 394.52 2427.92 408.152C2435.18 421.636 2438.81 436.305 2438.81 452.16V685.978H2324.12V637.97H2321.45C2314.64 650.713 2306.34 661.011 2296.56 668.864C2286.93 676.717 2275.89 682.422 2263.44 685.978C2251.15 689.534 2237.59 691.312 2222.77 691.312ZM2262.78 613.966C2272.11 613.966 2280.86 612.04 2289 608.187C2297.3 604.334 2304.04 598.778 2309.23 591.517C2314.42 584.257 2317.01 575.441 2317.01 565.068V536.619C2313.75 537.953 2310.27 539.212 2306.56 540.397C2303.01 541.583 2299.15 542.694 2295.01 543.731C2291 544.769 2286.71 545.732 2282.11 546.621C2277.67 547.51 2273 548.325 2268.11 549.066C2258.63 550.547 2250.85 552.992 2244.77 556.4C2238.85 559.66 2234.4 563.735 2231.44 568.625C2228.62 573.366 2227.22 578.7 2227.22 584.627C2227.22 594.11 2230.55 601.371 2237.22 606.409C2243.89 611.447 2252.41 613.966 2262.78 613.966Z" fill="white"/>
<path d="M1912.55 692.202C1875.5 692.202 1843.8 684.867 1817.42 670.198C1791.05 655.38 1770.82 634.784 1756.74 608.409C1742.67 581.886 1735.63 551.14 1735.63 516.171C1735.63 481.202 1742.67 450.53 1756.74 424.155C1770.82 397.632 1791.05 377.036 1817.42 362.367C1843.8 347.549 1875.5 340.141 1912.55 340.141C1946.04 340.141 1975 346.216 1999.45 358.366C2024.05 370.368 2043.09 387.408 2056.57 409.486C2070.06 431.416 2076.87 457.198 2077.02 486.833H1963.22C1961.59 468.904 1956.41 455.272 1947.67 445.937C1939.07 436.454 1927.96 431.712 1914.33 431.712C1903.66 431.712 1894.32 434.824 1886.32 441.047C1878.32 447.122 1872.1 456.383 1867.65 468.83C1863.21 481.128 1860.98 496.612 1860.98 515.282C1860.98 533.952 1863.21 549.51 1867.65 561.957C1872.1 574.255 1878.32 583.516 1886.32 589.739C1894.32 595.814 1903.66 598.852 1914.33 598.852C1923.37 598.852 1931.37 596.778 1938.33 592.629C1945.29 588.332 1950.93 582.108 1955.22 573.959C1959.67 565.661 1962.33 555.585 1963.22 543.731H2077.02C2076.58 573.811 2069.69 600.037 2056.35 622.412C2043.02 644.638 2024.12 661.826 1999.67 673.976C1975.37 686.126 1946.33 692.202 1912.55 692.202Z" fill="white"/>
<path d="M1692.18 455.716H1579.27C1578.68 448.752 1576.23 442.751 1571.94 437.713C1567.64 432.675 1562.08 428.823 1555.27 426.155C1548.6 423.34 1541.19 421.933 1533.04 421.933C1522.52 421.933 1513.48 423.859 1505.92 427.711C1498.37 431.564 1494.66 437.046 1494.81 444.159C1494.66 449.197 1496.81 453.864 1501.26 458.161C1505.85 462.458 1514.67 465.792 1527.71 468.163L1597.05 480.609C1632.02 486.981 1658.03 497.723 1675.07 512.837C1692.25 527.803 1700.92 547.88 1701.07 573.07C1700.92 597.37 1693.66 618.485 1679.29 636.414C1665.06 654.195 1645.58 667.975 1620.83 677.755C1596.24 687.386 1568.16 692.202 1536.6 692.202C1484.44 692.202 1443.62 681.533 1414.13 660.196C1384.79 638.859 1368.42 610.706 1365.01 575.737H1486.81C1488.44 586.554 1493.77 594.925 1502.81 600.852C1512 606.631 1523.56 609.521 1537.49 609.521C1548.75 609.521 1558.01 607.594 1565.27 603.742C1572.68 599.889 1576.46 594.407 1576.6 587.294C1576.46 580.775 1573.2 575.589 1566.82 571.736C1560.6 567.884 1550.82 564.772 1537.49 562.401L1477.03 551.733C1442.21 545.658 1416.13 534.1 1398.8 517.06C1381.46 500.02 1372.86 478.09 1373.01 451.271C1372.86 427.563 1379.09 407.486 1391.68 391.038C1404.43 374.443 1422.58 361.848 1446.14 353.254C1469.84 344.512 1497.92 340.141 1530.37 340.141C1579.72 340.141 1618.61 350.365 1647.06 370.813C1675.66 391.261 1690.7 419.562 1692.18 455.716Z" fill="white"/>
<path d="M989 685.979V230.789H1317.06V330.362H1112.58V408.598H1300.16V508.17H1112.58V586.406H1316.17V685.979H989Z" fill="white"/>
<defs>
<linearGradient id="paint0_linear_224_187" x1="12.0224" y1="553.736" x2="252.743" y2="1047.29" gradientUnits="userSpaceOnUse">
<stop stop-color="#A1131A"/>
<stop offset="1" stop-color="#FF5757"/>
</linearGradient>
</defs>
</svg>
