<svg width="1630" height="1630" viewBox="0 0 1630 1630" fill="none" xmlns="http://www.w3.org/2000/svg">
<path d="M560.135 1041.82L554.715 494.027L1128.34 825.209L616.954 1074.63L560.135 1041.82Z" fill="url(#paint0_linear_224_186)"/>
<path d="M1134.94 821.99L1000.12 887.746V356.757L629.819 537.365V1068.35L495 1134.11V538.121C495 491.177 529.204 436.438 571.397 415.86L1058.54 178.262C1100.74 157.683 1134.94 179.057 1134.94 226.001V821.99Z" fill="white"/>
<path d="M1439.47 1273.52L1432.56 1314.2H1329.64L1336.56 1273.52H1439.47ZM1362.59 1236.1H1418.73L1394.93 1379.49C1394.59 1381.66 1394.66 1383.49 1395.13 1384.98C1395.61 1386.41 1396.56 1387.49 1397.98 1388.24C1399.47 1388.92 1401.44 1389.26 1403.88 1389.26C1405.51 1389.26 1407.51 1389.05 1409.88 1388.65C1412.25 1388.17 1414.05 1387.83 1415.27 1387.63L1416.9 1427.09C1414.05 1427.9 1410.22 1428.82 1405.41 1429.83C1400.66 1430.92 1395.13 1431.63 1388.83 1431.97C1375.68 1432.58 1364.96 1431.19 1356.69 1427.8C1348.49 1424.41 1342.79 1419.12 1339.61 1411.93C1336.49 1404.68 1335.95 1395.63 1337.98 1384.78L1362.59 1236.1Z" fill="white"/>
<path d="M1311.79 1324.38H1261.35C1261.62 1321.12 1261.05 1318.35 1259.62 1316.04C1258.2 1313.73 1256.2 1311.97 1253.62 1310.75C1251.11 1309.53 1248.27 1308.92 1245.08 1308.92C1239.52 1308.92 1234.47 1310.18 1229.93 1312.68C1225.38 1315.12 1222.84 1318.35 1222.3 1322.35C1221.96 1323.9 1222.47 1325.36 1223.82 1326.72C1225.18 1328.07 1228.74 1329.33 1234.5 1330.48L1265.42 1336.18C1280.88 1339.02 1292.13 1344.21 1299.18 1351.74C1306.3 1359.19 1308.88 1369.06 1306.91 1381.33C1305.08 1391.97 1300.4 1401.13 1292.88 1408.79C1285.35 1416.45 1275.79 1422.35 1264.2 1426.48C1252.67 1430.55 1239.93 1432.59 1225.96 1432.59C1201.35 1432.59 1182.91 1427.67 1170.64 1417.84C1158.43 1408.01 1152.87 1395.16 1153.96 1379.3H1208.47C1208.6 1384.38 1210.3 1388.21 1213.55 1390.79C1216.87 1393.3 1221.28 1394.62 1226.77 1394.75C1232.74 1394.96 1237.96 1393.77 1242.43 1391.2C1246.91 1388.55 1249.42 1385.26 1249.96 1381.33C1250.16 1379.09 1249.18 1377.4 1247.01 1376.25C1244.91 1375.09 1240.88 1373.94 1234.91 1372.79L1208.06 1367.91C1192.6 1365.13 1181.35 1359.57 1174.3 1351.23C1167.25 1342.82 1164.8 1332.11 1166.97 1319.09C1168.74 1308.72 1172.94 1300.01 1179.59 1292.95C1186.3 1285.9 1195.11 1280.58 1206.03 1276.99C1216.94 1273.33 1229.55 1271.5 1243.86 1271.5C1267.25 1271.5 1284.94 1276.21 1296.95 1285.63C1309.01 1294.99 1313.96 1307.9 1311.79 1324.38Z" fill="white"/>
<path d="M1067.18 1429.74L1093.22 1273.53H1149.36L1123.32 1429.74H1067.18ZM1123.73 1257.26C1116.13 1257.26 1110 1254.75 1105.32 1249.73C1100.64 1244.65 1098.91 1238.61 1100.13 1231.63C1101.35 1224.51 1105.08 1218.48 1111.32 1213.53C1117.56 1208.51 1124.47 1206 1132.07 1206C1139.73 1206 1145.83 1208.51 1150.37 1213.53C1154.92 1218.48 1156.61 1224.51 1155.46 1231.63C1154.37 1238.61 1150.71 1244.65 1144.47 1249.73C1138.3 1254.75 1131.39 1257.26 1123.73 1257.26Z" fill="white"/>
<path d="M871.846 1488.32L907.847 1273.53H963.578L959.103 1300.79H960.323C963.171 1295.5 966.9 1290.65 971.51 1286.24C976.188 1281.77 981.68 1278.21 987.985 1275.56C994.358 1272.85 1001.41 1271.5 1009.14 1271.5C1019.44 1271.5 1028.77 1274.24 1037.11 1279.73C1045.44 1285.23 1051.58 1293.87 1055.51 1305.67C1059.45 1317.46 1059.85 1332.79 1056.73 1351.63C1053.75 1369.67 1048.43 1384.62 1040.77 1396.48C1033.17 1408.35 1024.22 1417.2 1013.92 1423.03C1003.68 1428.86 993.002 1431.77 981.883 1431.77C974.561 1431.77 968.222 1430.59 962.866 1428.21C957.51 1425.77 953.204 1422.48 949.95 1418.35C946.696 1414.15 944.458 1409.4 943.238 1404.11H942.018L928.187 1488.32H871.846ZM949.747 1351.63C948.526 1359.23 948.425 1365.8 949.442 1371.36C950.526 1376.86 952.662 1381.13 955.849 1384.18C959.103 1387.16 963.307 1388.65 968.459 1388.65C973.612 1388.65 978.222 1387.2 982.29 1384.28C986.358 1381.3 989.816 1377.06 992.663 1371.57C995.511 1366.01 997.613 1359.36 998.969 1351.63C1000.19 1343.91 1000.29 1337.29 999.274 1331.8C998.257 1326.24 996.189 1322.01 993.07 1319.09C989.952 1316.11 985.816 1314.62 980.663 1314.62C975.51 1314.62 970.798 1316.11 966.527 1319.09C962.323 1322.01 958.764 1326.24 955.849 1331.8C953.001 1337.29 950.967 1343.91 949.747 1351.63Z" fill="white"/>
<path d="M755.122 1432.18C745.224 1432.18 736.715 1430.55 729.596 1427.3C722.545 1423.98 717.392 1418.96 714.138 1412.25C710.951 1405.47 710.24 1396.92 712.002 1386.62C713.426 1378.08 716.104 1370.79 720.036 1364.75C723.969 1358.72 728.85 1353.77 734.681 1349.91C740.512 1346.04 747.054 1343.09 754.309 1341.06C761.631 1338.96 769.36 1337.6 777.496 1336.99C786.31 1336.31 793.463 1335.46 798.954 1334.45C804.446 1333.43 808.548 1332.04 811.26 1330.28C813.972 1328.52 815.599 1326.14 816.142 1323.16V1322.75C816.752 1318.68 815.667 1315.57 812.887 1313.4C810.175 1311.23 806.379 1310.14 801.497 1310.14C796.209 1310.14 791.632 1311.29 787.768 1313.6C783.971 1315.9 781.361 1319.5 779.937 1324.38H728.274C730.444 1314.89 734.884 1306.14 741.597 1298.14C748.376 1290.07 757.36 1283.63 768.547 1278.82C779.801 1273.94 793.225 1271.5 808.819 1271.5C819.938 1271.5 829.701 1272.82 838.108 1275.46C846.515 1278.04 853.465 1281.67 858.957 1286.34C864.516 1290.95 868.414 1296.38 870.652 1302.62C872.957 1308.79 873.499 1315.5 872.279 1322.75L854.38 1429.74H801.904L805.565 1407.77H804.344C800.277 1413.6 795.7 1418.31 790.615 1421.91C785.598 1425.5 780.106 1428.11 774.14 1429.74C768.242 1431.37 761.902 1432.18 755.122 1432.18ZM779.53 1396.79C783.734 1396.79 787.869 1395.91 791.937 1394.14C796.005 1392.38 799.497 1389.84 802.412 1386.52C805.328 1383.19 807.192 1379.16 808.006 1374.41L810.04 1361.4C808.548 1362.01 806.887 1362.58 805.056 1363.13C803.294 1363.6 801.429 1364.08 799.463 1364.55C797.565 1365.02 795.531 1365.47 793.361 1365.87C791.259 1366.28 789.09 1366.69 786.852 1367.09C782.378 1367.77 778.615 1368.89 775.564 1370.45C772.513 1371.94 770.14 1373.8 768.445 1376.04C766.75 1378.21 765.699 1380.65 765.292 1383.36C764.682 1387.64 765.665 1390.96 768.242 1393.33C770.886 1395.64 774.649 1396.79 779.53 1396.79Z" fill="white"/>
<path d="M613.175 1432.59C596.225 1432.59 582.259 1429.23 571.275 1422.52C560.292 1415.74 552.597 1406.31 548.19 1394.25C543.783 1382.11 542.935 1368.04 545.647 1352.04C548.224 1336.04 553.715 1322.01 562.123 1309.94C570.597 1297.8 581.445 1288.38 594.666 1281.67C607.955 1274.89 623.074 1271.5 640.024 1271.5C655.346 1271.5 668.126 1274.28 678.364 1279.84C688.669 1285.33 696.025 1293.12 700.432 1303.23C704.907 1313.26 706.06 1325.06 703.89 1338.62H651.821C652.431 1330.48 651.109 1324.24 647.854 1319.9C644.668 1315.57 640.024 1313.4 633.922 1313.4C628.905 1313.4 624.294 1314.82 620.091 1317.67C615.955 1320.45 612.395 1324.68 609.412 1330.38C606.497 1336.01 604.361 1343.09 603.005 1351.63C601.649 1360.18 601.48 1367.3 602.497 1372.99C603.582 1378.62 605.683 1382.86 608.802 1385.7C611.989 1388.48 616.023 1389.87 620.904 1389.87C625.108 1389.87 628.972 1388.92 632.498 1387.03C636.091 1385.06 639.176 1382.21 641.752 1378.48C644.397 1374.69 646.397 1370.08 647.753 1364.65H699.822C697.246 1378.48 692.059 1390.48 684.262 1400.65C676.465 1410.82 666.533 1418.69 654.465 1424.25C642.396 1429.81 628.633 1432.59 613.175 1432.59Z" fill="white"/>
<path d="M529.834 1324.38H479.392C479.663 1321.12 479.087 1318.35 477.663 1316.04C476.239 1313.73 474.239 1311.97 471.663 1310.75C469.154 1309.53 466.306 1308.92 463.12 1308.92C457.56 1308.92 452.509 1310.18 447.967 1312.68C443.424 1315.12 440.882 1318.35 440.339 1322.35C440 1323.9 440.509 1325.36 441.865 1326.72C443.221 1328.07 446.78 1329.33 452.543 1330.48L483.46 1336.18C498.918 1339.02 510.172 1344.21 517.224 1351.74C524.342 1359.19 526.919 1369.06 524.953 1381.33C523.122 1391.97 518.444 1401.13 510.918 1408.79C503.392 1416.45 493.833 1422.35 482.239 1426.48C470.713 1430.55 457.967 1432.59 444.001 1432.59C419.39 1432.59 400.948 1427.67 388.677 1417.84C376.473 1408.01 370.913 1395.16 371.998 1379.3H426.508C426.644 1384.38 428.339 1388.21 431.593 1390.79C434.916 1393.3 439.322 1394.62 444.814 1394.75C450.78 1394.96 456.001 1393.77 460.476 1391.2C464.95 1388.55 467.459 1385.26 468.001 1381.33C468.205 1379.09 467.222 1377.4 465.052 1376.25C462.95 1375.09 458.916 1373.94 452.95 1372.79L426.102 1367.91C410.643 1365.13 399.389 1359.57 392.338 1351.23C385.287 1342.82 382.846 1332.11 385.015 1319.09C386.778 1308.72 390.982 1300.01 397.626 1292.95C404.338 1285.9 413.152 1280.58 424.068 1276.99C434.983 1273.33 447.594 1271.5 461.9 1271.5C485.29 1271.5 502.986 1276.21 514.986 1285.63C527.054 1294.99 532.004 1307.9 529.834 1324.38Z" fill="white"/>
<path d="M191 1429.74L225.577 1221.46H375.684L367.955 1267.02H274.393L268.698 1302.82H354.531L346.802 1348.38H260.969L255.273 1384.17H348.429L340.7 1429.74H191Z" fill="white"/>
<defs>
<linearGradient id="paint0_linear_224_186" x1="299.022" y1="618.736" x2="539.743" y2="1112.29" gradientUnits="userSpaceOnUse">
<stop stop-color="#A1131A"/>
<stop offset="1" stop-color="#FF5757"/>
</linearGradient>
</defs>
</svg>
