<svg width="1630" height="1630" viewBox="0 0 1630 1630" fill="none" xmlns="http://www.w3.org/2000/svg">
<path d="M560.135 1041.82L554.715 494.025L1128.34 825.207L616.954 1074.63L560.135 1041.82Z" fill="url(#paint0_linear_234_256)"/>
<path d="M1134.94 821.988L1000.12 887.744V356.755L629.819 537.363V1068.35L495 1134.11V538.119C495 491.175 529.204 436.436 571.397 415.858L1058.54 178.26C1100.74 157.681 1134.94 179.055 1134.94 225.999V821.988Z" fill="#07080A"/>
<path d="M1439.47 1273.52L1432.56 1314.2H1329.64L1336.56 1273.52H1439.47ZM1362.59 1236.1H1418.73L1394.93 1379.49C1394.59 1381.66 1394.66 1383.49 1395.13 1384.98C1395.61 1386.41 1396.56 1387.49 1397.98 1388.24C1399.47 1388.92 1401.44 1389.26 1403.88 1389.26C1405.51 1389.26 1407.51 1389.05 1409.88 1388.65C1412.25 1388.17 1414.05 1387.83 1415.27 1387.63L1416.9 1427.09C1414.05 1427.9 1410.22 1428.82 1405.41 1429.83C1400.66 1430.92 1395.13 1431.63 1388.83 1431.97C1375.68 1432.58 1364.96 1431.19 1356.69 1427.8C1348.49 1424.41 1342.79 1419.12 1339.61 1411.93C1336.49 1404.68 1335.95 1395.63 1337.98 1384.78L1362.59 1236.1Z" fill="#07080A"/>
<path d="M1311.79 1324.38H1261.35C1261.62 1321.12 1261.05 1318.35 1259.62 1316.04C1258.2 1313.73 1256.2 1311.97 1253.62 1310.75C1251.11 1309.53 1248.27 1308.92 1245.08 1308.92C1239.52 1308.92 1234.47 1310.18 1229.93 1312.68C1225.38 1315.12 1222.84 1318.35 1222.3 1322.35C1221.96 1323.9 1222.47 1325.36 1223.82 1326.72C1225.18 1328.07 1228.74 1329.33 1234.5 1330.48L1265.42 1336.18C1280.88 1339.02 1292.13 1344.21 1299.18 1351.74C1306.3 1359.19 1308.88 1369.06 1306.91 1381.33C1305.08 1391.97 1300.4 1401.13 1292.88 1408.79C1285.35 1416.45 1275.79 1422.35 1264.2 1426.48C1252.67 1430.55 1239.93 1432.59 1225.96 1432.59C1201.35 1432.59 1182.91 1427.67 1170.64 1417.84C1158.43 1408.01 1152.87 1395.16 1153.96 1379.3H1208.47C1208.6 1384.38 1210.3 1388.21 1213.55 1390.79C1216.87 1393.3 1221.28 1394.62 1226.77 1394.75C1232.74 1394.96 1237.96 1393.77 1242.43 1391.2C1246.91 1388.55 1249.42 1385.26 1249.96 1381.33C1250.16 1379.09 1249.18 1377.4 1247.01 1376.25C1244.91 1375.09 1240.88 1373.94 1234.91 1372.79L1208.06 1367.91C1192.6 1365.13 1181.35 1359.57 1174.3 1351.23C1167.25 1342.82 1164.8 1332.11 1166.97 1319.09C1168.74 1308.72 1172.94 1300.01 1179.59 1292.95C1186.3 1285.9 1195.11 1280.58 1206.03 1276.99C1216.94 1273.33 1229.55 1271.5 1243.86 1271.5C1267.25 1271.5 1284.94 1276.21 1296.95 1285.63C1309.01 1294.99 1313.96 1307.9 1311.79 1324.38Z" fill="#07080A"/>
<path d="M1067.18 1429.74L1093.22 1273.53H1149.36L1123.32 1429.74H1067.18ZM1123.73 1257.26C1116.13 1257.26 1110 1254.75 1105.32 1249.73C1100.64 1244.65 1098.91 1238.61 1100.13 1231.63C1101.35 1224.51 1105.08 1218.48 1111.32 1213.53C1117.56 1208.51 1124.47 1206 1132.07 1206C1139.73 1206 1145.83 1208.51 1150.37 1213.53C1154.92 1218.48 1156.61 1224.51 1155.46 1231.63C1154.37 1238.61 1150.71 1244.65 1144.47 1249.73C1138.3 1254.75 1131.39 1257.26 1123.73 1257.26Z" fill="#07080A"/>
<path d="M871.844 1488.32L907.845 1273.53H963.576L959.101 1300.79H960.321C963.169 1295.5 966.898 1290.65 971.508 1286.24C976.186 1281.77 981.678 1278.21 987.983 1275.56C994.356 1272.85 1001.41 1271.5 1009.14 1271.5C1019.44 1271.5 1028.76 1274.24 1037.1 1279.73C1045.44 1285.23 1051.58 1293.87 1055.51 1305.67C1059.44 1317.46 1059.85 1332.79 1056.73 1351.63C1053.75 1369.67 1048.43 1384.62 1040.76 1396.48C1033.17 1408.35 1024.22 1417.2 1013.92 1423.03C1003.68 1428.86 993.001 1431.77 981.882 1431.77C974.559 1431.77 968.22 1430.59 962.864 1428.21C957.508 1425.77 953.203 1422.48 949.948 1418.35C946.694 1414.15 944.456 1409.4 943.236 1404.11H942.016L928.185 1488.32H871.844ZM949.745 1351.63C948.524 1359.23 948.423 1365.8 949.44 1371.36C950.524 1376.86 952.66 1381.13 955.847 1384.18C959.101 1387.16 963.305 1388.65 968.457 1388.65C973.61 1388.65 978.22 1387.2 982.288 1384.28C986.356 1381.3 989.814 1377.06 992.662 1371.57C995.509 1366.01 997.611 1359.36 998.967 1351.63C1000.19 1343.91 1000.29 1337.29 999.272 1331.8C998.255 1326.24 996.187 1322.01 993.068 1319.09C989.95 1316.11 985.814 1314.62 980.661 1314.62C975.508 1314.62 970.796 1316.11 966.525 1319.09C962.321 1322.01 958.762 1326.24 955.847 1331.8C952.999 1337.29 950.965 1343.91 949.745 1351.63Z" fill="#07080A"/>
<path d="M755.124 1432.18C745.226 1432.18 736.717 1430.55 729.598 1427.3C722.547 1423.98 717.394 1418.96 714.14 1412.25C710.953 1405.47 710.241 1396.92 712.004 1386.62C713.428 1378.08 716.106 1370.79 720.038 1364.75C723.971 1358.72 728.852 1353.77 734.683 1349.91C740.514 1346.04 747.056 1343.09 754.311 1341.06C761.633 1338.96 769.362 1337.6 777.498 1336.99C786.312 1336.31 793.465 1335.46 798.956 1334.45C804.448 1333.43 808.55 1332.04 811.262 1330.28C813.974 1328.52 815.601 1326.14 816.143 1323.16V1322.75C816.754 1318.68 815.669 1315.57 812.889 1313.4C810.177 1311.23 806.38 1310.14 801.499 1310.14C796.211 1310.14 791.634 1311.29 787.77 1313.6C783.973 1315.9 781.363 1319.5 779.939 1324.38H728.276C730.446 1314.89 734.886 1306.14 741.599 1298.14C748.378 1290.07 757.362 1283.63 768.549 1278.82C779.803 1273.94 793.227 1271.5 808.821 1271.5C819.94 1271.5 829.703 1272.82 838.11 1275.46C846.517 1278.04 853.467 1281.67 858.958 1286.34C864.518 1290.95 868.416 1296.38 870.654 1302.62C872.959 1308.79 873.501 1315.5 872.281 1322.75L854.382 1429.74H801.906L805.567 1407.77H804.346C800.278 1413.6 795.702 1418.31 790.617 1421.91C785.6 1425.5 780.108 1428.11 774.142 1429.74C768.243 1431.37 761.904 1432.18 755.124 1432.18ZM779.532 1396.79C783.736 1396.79 787.871 1395.91 791.939 1394.14C796.007 1392.38 799.499 1389.84 802.414 1386.52C805.33 1383.19 807.194 1379.16 808.008 1374.41L810.042 1361.4C808.55 1362.01 806.889 1362.58 805.058 1363.13C803.296 1363.6 801.431 1364.08 799.465 1364.55C797.567 1365.02 795.533 1365.47 793.363 1365.87C791.261 1366.28 789.092 1366.69 786.854 1367.09C782.38 1367.77 778.617 1368.89 775.566 1370.45C772.515 1371.94 770.142 1373.8 768.447 1376.04C766.752 1378.21 765.701 1380.65 765.294 1383.36C764.684 1387.64 765.667 1390.96 768.244 1393.33C770.888 1395.64 774.65 1396.79 779.532 1396.79Z" fill="#07080A"/>
<path d="M613.175 1432.59C596.225 1432.59 582.259 1429.23 571.275 1422.52C560.292 1415.74 552.597 1406.31 548.19 1394.25C543.783 1382.11 542.935 1368.04 545.647 1352.04C548.224 1336.04 553.715 1322.01 562.123 1309.94C570.597 1297.8 581.445 1288.38 594.666 1281.67C607.955 1274.89 623.074 1271.5 640.024 1271.5C655.346 1271.5 668.126 1274.28 678.364 1279.84C688.669 1285.33 696.025 1293.12 700.432 1303.23C704.907 1313.26 706.06 1325.06 703.89 1338.62H651.821C652.431 1330.48 651.109 1324.24 647.854 1319.9C644.668 1315.57 640.024 1313.4 633.922 1313.4C628.905 1313.4 624.294 1314.82 620.091 1317.67C615.955 1320.45 612.395 1324.68 609.412 1330.38C606.497 1336.01 604.361 1343.09 603.005 1351.63C601.649 1360.18 601.48 1367.3 602.497 1372.99C603.582 1378.62 605.683 1382.86 608.802 1385.7C611.989 1388.48 616.023 1389.87 620.904 1389.87C625.108 1389.87 628.972 1388.92 632.498 1387.03C636.091 1385.06 639.176 1382.21 641.752 1378.48C644.397 1374.69 646.397 1370.08 647.753 1364.65H699.822C697.246 1378.48 692.059 1390.48 684.262 1400.65C676.465 1410.82 666.533 1418.69 654.465 1424.25C642.396 1429.81 628.633 1432.59 613.175 1432.59Z" fill="#07080A"/>
<path d="M529.832 1324.38H479.39C479.661 1321.12 479.085 1318.35 477.661 1316.04C476.237 1313.73 474.237 1311.97 471.661 1310.75C469.152 1309.53 466.305 1308.92 463.118 1308.92C457.558 1308.92 452.507 1310.18 447.965 1312.68C443.422 1315.12 440.88 1318.35 440.337 1322.35C439.998 1323.9 440.507 1325.36 441.863 1326.72C443.219 1328.07 446.778 1329.33 452.541 1330.48L483.458 1336.18C498.916 1339.02 510.17 1344.21 517.222 1351.74C524.34 1359.19 526.917 1369.06 524.951 1381.33C523.12 1391.97 518.442 1401.13 510.916 1408.79C503.391 1416.45 493.831 1422.35 482.237 1426.48C470.711 1430.55 457.965 1432.59 443.999 1432.59C419.388 1432.59 400.946 1427.67 388.675 1417.84C376.471 1408.01 370.911 1395.16 371.996 1379.3H426.506C426.642 1384.38 428.337 1388.21 431.591 1390.79C434.914 1393.3 439.32 1394.62 444.812 1394.75C450.779 1394.96 455.999 1393.77 460.474 1391.2C464.949 1388.55 467.457 1385.26 467.999 1381.33C468.203 1379.09 467.22 1377.4 465.05 1376.25C462.948 1375.09 458.914 1373.94 452.948 1372.79L426.1 1367.91C410.642 1365.13 399.387 1359.57 392.336 1351.23C385.285 1342.82 382.844 1332.11 385.014 1319.09C386.776 1308.72 390.98 1300.01 397.624 1292.95C404.336 1285.9 413.15 1280.58 424.066 1276.99C434.981 1273.33 447.592 1271.5 461.898 1271.5C485.288 1271.5 502.984 1276.21 514.984 1285.63C527.052 1294.99 532.002 1307.9 529.832 1324.38Z" fill="#07080A"/>
<path d="M191 1429.74L225.577 1221.46H375.684L367.955 1267.02H274.393L268.698 1302.82H354.531L346.802 1348.38H260.969L255.273 1384.17H348.429L340.7 1429.74H191Z" fill="#07080A"/>
<defs>
<linearGradient id="paint0_linear_234_256" x1="299.022" y1="618.734" x2="539.743" y2="1112.28" gradientUnits="userSpaceOnUse">
<stop stop-color="#A1131A"/>
<stop offset="1" stop-color="#FF5757"/>
</linearGradient>
</defs>
</svg>
